<svg width="251" height="252" viewBox="0 0 251 252" fill="none" xmlns="http://www.w3.org/2000/svg">
<ellipse cx="125.5" cy="125.934" rx="124.5" ry="124.934" stroke="#25251C"/>
<mask id="mask0" mask-type="alpha" maskUnits="userSpaceOnUse" x="0" y="0" width="251" height="252">
<ellipse cx="125.5" cy="125.934" rx="124.5" ry="124.934" fill="white" stroke="white"/>
</mask>
<g mask="url(#mask0)">
<path fill-rule="evenodd" clip-rule="evenodd" d="M126.5 161.099L116.108 290.673L122.038 160.818L95.4884 288.069L117.647 159.981L75.3577 282.9L113.395 158.599L56.0335 275.249L109.35 156.696L37.8207 265.236L105.575 154.3L21.0063 253.02L102.131 151.451L5.85569 238.793L99.0705 148.192L-7.39231 222.778L96.4428 144.575L-18.5288 205.23L94.2891 140.657L-27.378 186.425L92.6434 136.501L-33.8005 166.658L91.5316 132.171L-37.695 146.243L90.9713 127.735L-39 125.5L90.9713 123.265L-37.695 104.757L91.5316 118.829L-33.8005 84.3418L92.6434 114.499L-27.378 64.5754L94.2891 110.343L-18.5288 45.7698L96.4428 106.425L-7.39231 28.2215L99.0705 102.808L5.85569 12.2075L102.131 99.5495L21.0063 -2.01994L105.575 96.6998L37.8207 -14.2363L109.35 94.3044L56.0335 -24.2489L113.395 92.4009L75.3577 -31.8999L117.647 91.0194L95.4884 -37.0685L122.038 90.1817L116.108 -39.6734L126.5 89.901L136.892 -39.6734L130.962 90.1817L157.512 -37.0685L135.353 91.0194L177.642 -31.8999L139.605 92.4009L196.966 -24.2489L143.65 94.3044L215.179 -14.2363L147.425 96.6998L231.994 -2.01994L150.869 99.5495L247.144 12.2075L153.929 102.808L260.392 28.2215L156.557 106.425L271.529 45.7698L158.711 110.343L280.378 64.5754L160.357 114.499L286.801 84.3418L161.468 118.829L290.695 104.757L162.029 123.265L292 125.5L162.029 127.735L290.695 146.243L161.468 132.171L286.801 166.658L160.357 136.501L280.378 186.425L158.711 140.657L271.529 205.23L156.557 144.575L260.392 222.778L153.929 148.192L247.144 238.793L150.869 151.451L231.994 253.02L147.425 154.3L215.179 265.236L143.65 156.696L196.966 275.249L139.605 158.599L177.642 282.9L135.353 159.981L157.512 288.069L130.962 160.818L136.892 290.673L126.5 161.099Z" stroke="#25251C" stroke-width="0.550122"/>
</g>
</svg>
